<?xml version="1.0" encoding="UTF-8"?>
<svg id="Layer_2" xmlns="http://www.w3.org/2000/svg" width="261.6887" height="261.6" version="1.1" viewBox="0 0 261.6887 261.6">
  <!-- Generator: Adobe Illustrator 29.8.0, SVG Export Plug-In . SVG Version: 2.1.1 Build 160)  -->
  <defs>
    <style>
      .st0 {
        fill: #09090b;
      }

      .st1 {
        fill: #e9ebe6;
      }
    </style>
  </defs>
  <rect class="st0" x=".7" y="1.0056" width="260.9887" height="260.9887" rx="69.7551" ry="69.7551"/>
  <path class="st1" d="M110.825,120.7515l35.6212-20.8726-3.7556-12.0164-36.8737,21.515,4.9909,11.3914.0172-.0173h0Z"/>
  <path class="st1" d="M149.5678,178.3164l-43.1161-25.3012,3.1213-11.3913,43.7342,25.2999-3.7568,11.3925h.0174Z"/>
  <path class="st1" d="M198.567,206.4115l-21.7125,12.7465c-2.9496,1.7364-6.6031,1.7364-9.5701,0l-21.7125-12.7465c-2.9322-1.719-4.7508-4.914-4.7508-8.3519v-26.2043c0-3.4379,1.8186-6.6155,4.7508-8.3519l21.7125-12.7452c2.9496-1.7364,6.6031-1.7364,9.5701,0l21.7125,12.7452c2.9322,1.719,4.7508,4.914,4.7508,8.3519v26.2043c0,3.4379-1.8186,6.6155-4.7508,8.3519Z"/>
  <path class="st1" d="M112.0769,118.0772v26.2037c0,3.4379-1.818,6.6155-4.7507,8.3519l-.7889.4696-18.8313-10.8357,10.6161,15.6625-12.7085,7.4675c-2.9498,1.7364-6.6028,1.7364-9.5699,0l-21.7125-12.7465c-2.9327-1.719-4.7507-4.914-4.7507-8.3519v-26.2039c0-3.4382,1.818-6.616,4.7507-8.3524l21.7125-12.7459c2.9499-1.7364,6.6029-1.7364,9.5699,0l21.7125,12.7459c2.9327,1.7191,4.7507,4.9143,4.7507,8.3524v-.0173h0Z"/>
  <path class="st1" d="M198.567,99.4968l-21.7125,12.7458c-2.9496,1.7365-6.6031,1.7365-9.5701,0l-11.7313-6.8938,12.1424-18.1463-21.3351,12.7458-.7885-.4514c-2.9322-1.7192-4.7508-4.9142-4.7508-8.3525v-26.2035c0-3.4383,1.8186-6.616,4.7508-8.3526l21.7125-12.7458c2.9496-1.7365,6.6031-1.7365,9.5701,0l21.7125,12.7458c2.9322,1.7191,4.7508,4.9142,4.7508,8.3526v26.2035c0,3.4383-1.8186,6.616-4.7508,8.3525h0Z"/>
</svg>